# Created using MeshMagic

# Vertex Array
v -7.534 6.148 -14.140 220 220 220
v -7.232 6.136 -13.890 220 220 220
v -7.310 6.148 -14.279 220 220 220
v -7.794 6.148 -13.936 220 220 220
v -7.450 6.136 -5.195 220 220 220
v -8.071 6.148 -13.649 220 220 220
v -8.209 6.148 -13.452 220 220 220
v -8.330 6.148 -13.235 220 220 220
v -8.465 6.148 -12.908 220 220 220
v -8.602 6.148 -12.441 220 220 220
v -8.668 6.148 -12.121 220 220 220
v -8.723 6.148 -11.769 220 220 220
v -8.769 6.148 -11.384 220 220 220
v -8.793 6.148 -11.132 220 220 220
v -8.808 6.148 -10.913 220 220 220
v -8.815 6.148 -10.722 220 220 220
v -8.816 6.148 -10.555 220 220 220
v -8.812 6.148 -10.407 220 220 220
v -8.804 6.148 -10.273 220 220 220
v -8.794 6.148 -10.148 220 220 220
v -8.783 6.148 -10.028 220 220 220
v -8.576 6.148 -9.300 220 220 220
v -8.771 6.148 -9.908 220 220 220
v -8.761 6.148 -9.783 220 220 220
v -8.750 6.148 -9.501 220 220 220
v -8.754 6.148 -9.649 220 220 220
v -8.555 6.140 -9.064 220 220 220
v -8.533 6.138 -8.792 220 220 220
v -8.512 6.138 -8.488 220 220 220
v -8.492 6.136 -8.158 220 220 220
v -8.471 6.136 -7.806 220 220 220
v -8.451 6.136 -7.440 220 220 220
v -8.432 6.136 -7.062 220 220 220
v -8.412 6.136 -6.679 220 220 220
v -8.392 6.136 -6.297 220 220 220
v -8.372 6.136 -5.919 220 220 220
v -8.352 6.136 -5.553 220 220 220
v -8.332 6.136 -5.201 220 220 220
v -8.555 6.146 -9.064 220 220 220
v -8.533 6.148 -8.792 220 220 220
v -8.512 6.151 -8.488 220 220 220
v -8.492 6.161 -8.158 220 220 220
v -8.471 6.161 -7.806 220 220 220
v -8.451 6.161 -7.440 220 220 220
v -8.432 6.161 -7.062 220 220 220
v -8.412 6.161 -6.679 220 220 220
v -8.392 6.161 -6.297 220 220 220
v -8.372 6.161 -5.919 220 220 220
v -8.352 6.161 -5.553 220 220 220
v -8.332 6.161 -5.201 220 220 220
v -7.450 6.161 -5.195 220 220 220
v -7.232 6.161 -13.890 220 220 220

# Normal Array
vn 0.017 0.999 0.027
vn 0.019 1.000 0.025
vn 0.021 1.000 0.001
vn 0.001 1.000 0.001
vn 0.002 1.000 0.001
vn 0.002 1.000 0.001
vn 0.003 1.000 0.001
vn 0.004 1.000 0.001
vn 0.005 1.000 0.001
vn 0.005 1.000 0.001
vn 0.006 1.000 0.001
vn 0.006 1.000 0.001
vn 0.007 1.000 0.000
vn 0.008 1.000 0.000
vn 0.009 1.000 0.000
vn 0.010 1.000 -0.000
vn 0.011 1.000 -0.001
vn 0.013 1.000 -0.001
vn -0.000 1.000 0.000
vn 0.167 0.985 -0.043
vn -0.000 1.000 0.000
vn -0.000 1.000 0.000
vn -0.000 1.000 0.000
vn -0.165 0.985 0.048
vn -0.031 0.999 0.010
vn 0.002 1.000 -0.000
vn -0.021 1.000 0.007
vn -0.000 1.000 0.000
vn -0.000 1.000 0.000
vn -0.000 1.000 0.000
vn -0.000 1.000 0.000
vn -0.000 1.000 0.000
vn -0.000 1.000 0.000
vn -0.000 1.000 0.000
vn -0.000 1.000 0.000
vn 0.996 0.000 -0.089
vn 0.997 0.000 -0.081
vn 0.997 0.000 -0.081
vn 0.998 0.000 -0.069
vn 0.998 0.000 -0.069
vn 0.998 0.000 -0.060
vn 0.998 0.000 -0.060
vn 0.998 0.000 -0.060
vn 0.998 0.000 -0.060
vn 0.999 0.000 -0.055
vn 0.999 0.000 -0.055
vn 0.999 0.000 -0.050
vn 0.999 0.000 -0.050
vn 0.999 0.000 -0.052
vn 0.999 0.000 -0.052
vn 0.999 0.000 -0.052
vn 0.999 0.000 -0.052
vn 0.999 0.000 -0.053
vn 0.999 0.000 -0.053
vn 0.999 0.000 -0.055
vn 0.999 0.000 -0.055
vn 0.998 0.000 -0.057
vn 0.998 0.000 -0.057
vn 0.007 0.000 -1.000
vn 0.007 0.000 -1.000
vn -1.000 0.000 -0.025
vn -1.000 0.000 -0.025
vn -0.980 0.000 0.197
vn 0.018 -0.999 0.030
vn 0.021 -0.999 0.027
vn 0.023 -1.000 0.001
vn 0.001 -1.000 0.001
vn 0.002 -1.000 0.001
vn 0.002 -1.000 0.001
vn 0.003 -1.000 0.001
vn 0.004 -1.000 0.001
vn 0.005 -1.000 0.001
vn 0.006 -1.000 0.001
vn 0.006 -1.000 0.001
vn 0.007 -1.000 0.001
vn 0.007 -1.000 0.001
vn 0.008 -1.000 0.000
vn 0.009 -1.000 0.000
vn 0.011 -1.000 -0.000
vn 0.012 -1.000 -0.001
vn 0.014 -1.000 -0.001
vn 0.181 -0.982 -0.046
vn 0.000 -1.000 0.000
vn 0.063 -0.998 -0.014
vn -0.017 -1.000 0.009
vn -0.027 -1.000 0.012
vn -0.103 -0.994 0.036
vn 0.000 -1.000 0.000
vn 0.000 -1.000 0.000
vn 0.000 -1.000 0.000
vn 0.000 -1.000 0.000
vn 0.000 -1.000 0.000
vn 0.000 -1.000 0.000
vn 0.000 -1.000 0.000
vn 0.000 -1.000 0.000

# Facets
f 1//1 2//1 3//1
f 4//2 2//2 1//2
f 5//3 2//3 4//3
f 6//4 5//4 4//4
f 7//5 5//5 6//5
f 8//6 5//6 7//6
f 9//7 5//7 8//7
f 10//8 5//8 9//8
f 11//9 5//9 10//9
f 12//10 5//10 11//10
f 13//11 5//11 12//11
f 5//12 13//12 14//12
f 15//13 5//13 14//13
f 16//14 5//14 15//14
f 17//15 5//15 16//15
f 18//16 5//16 17//16
f 19//17 5//17 18//17
f 20//18 5//18 19//18
f 21//19 22//19 20//19
f 22//20 5//20 20//20
f 23//21 22//21 21//21
f 24//22 22//22 23//22
f 25//23 22//23 26//23
f 27//24 5//24 22//24
f 28//25 5//25 27//25
f 29//26 5//26 28//26
f 30//27 5//27 29//27
f 31//28 5//28 30//28
f 32//29 5//29 31//29
f 33//30 5//30 32//30
f 34//31 5//31 33//31
f 35//32 5//32 34//32
f 36//33 5//33 35//33
f 37//34 5//34 36//34
f 38//35 5//35 37//35
f 27//36 22//36 39//36
f 28//37 27//37 39//37
f 39//38 40//38 28//38
f 29//39 28//39 40//39
f 40//40 41//40 29//40
f 30//41 29//41 41//41
f 41//42 42//42 30//42
f 31//43 30//43 42//43
f 42//44 43//44 31//44
f 32//45 31//45 43//45
f 43//46 44//46 32//46
f 33//47 32//47 44//47
f 44//48 45//48 33//48
f 34//49 33//49 45//49
f 45//50 46//50 34//50
f 35//51 34//51 46//51
f 46//52 47//52 35//52
f 36//53 35//53 47//53
f 47//54 48//54 36//54
f 37//55 36//55 48//55
f 48//56 49//56 37//56
f 38//57 37//57 49//57
f 49//58 50//58 38//58
f 5//59 38//59 50//59
f 50//60 51//60 5//60
f 2//61 5//61 51//61
f 51//62 52//62 2//62
f 3//63 2//63 52//63
f 3//64 52//64 1//64
f 1//65 52//65 4//65
f 52//66 51//66 4//66
f 4//67 51//67 6//67
f 6//68 51//68 7//68
f 7//69 51//69 8//69
f 8//70 51//70 9//70
f 9//71 51//71 10//71
f 10//72 51//72 11//72
f 11//73 51//73 12//73
f 12//74 51//74 13//74
f 14//75 13//75 51//75
f 14//76 51//76 15//76
f 15//77 51//77 16//77
f 16//78 51//78 17//78
f 17//79 51//79 18//79
f 18//80 51//80 19//80
f 19//81 51//81 20//81
f 20//82 51//82 22//82
f 24//83 22//83 26//83
f 22//84 51//84 39//84
f 39//85 51//85 40//85
f 40//86 51//86 41//86
f 41//87 51//87 42//87
f 42//88 51//88 43//88
f 43//89 51//89 44//89
f 44//90 51//90 45//90
f 45//91 51//91 46//91
f 46//92 51//92 47//92
f 47//93 51//93 48//93
f 48//94 51//94 49//94
f 49//95 51//95 50//95

# Thank you for using MeshMagic

