# Created using MeshMagic

# Vertex Array
v -0.861 1.661 -24.716 220 220 220
v -1.079 1.661 -16.020 220 220 220
v -1.960 1.661 -16.027 220 220 220
v -1.981 1.661 -16.378 220 220 220
v -2.001 1.661 -16.745 220 220 220
v -2.021 1.661 -17.123 220 220 220
v -2.040 1.661 -17.505 220 220 220
v -2.060 1.661 -17.888 220 220 220
v -2.080 1.661 -18.265 220 220 220
v -2.100 1.661 -18.632 220 220 220
v -2.120 1.661 -18.984 220 220 220
v -2.141 1.661 -19.314 220 220 220
v -2.162 1.661 -19.618 220 220 220
v -2.183 1.661 -19.890 220 220 220
v -2.421 1.662 -21.958 220 220 220
v -2.436 1.662 -21.739 220 220 220
v -2.444 1.662 -21.548 220 220 220
v -2.445 1.662 -21.381 220 220 220
v -2.441 1.662 -21.233 220 220 220
v -2.433 1.662 -21.099 220 220 220
v -2.423 1.662 -20.974 220 220 220
v -2.412 1.662 -20.854 220 220 220
v -2.400 1.662 -20.734 220 220 220
v -2.390 1.662 -20.609 220 220 220
v -2.382 1.662 -20.475 220 220 220
v -2.378 1.662 -20.327 220 220 220
v -2.205 1.662 -20.126 220 220 220
v -2.183 1.662 -19.890 220 220 220
v -2.162 1.662 -19.618 220 220 220
v -2.141 1.662 -19.314 220 220 220
v -2.120 1.663 -18.984 220 220 220
v -2.100 1.663 -18.632 220 220 220
v -2.080 1.663 -18.265 220 220 220
v -2.060 1.663 -17.888 220 220 220
v -2.040 1.663 -17.505 220 220 220
v -2.021 1.663 -17.123 220 220 220
v -2.001 1.663 -16.745 220 220 220
v -1.981 1.663 -16.378 220 220 220
v -1.960 1.663 -16.027 220 220 220
v -1.079 1.663 -16.020 220 220 220
v -0.861 1.663 -24.716 220 220 220
v -0.939 1.662 -25.105 220 220 220
v -1.163 1.662 -24.966 220 220 220
v -1.423 1.662 -24.762 220 220 220
v -1.699 1.662 -24.475 220 220 220
v -1.838 1.662 -24.278 220 220 220
v -1.959 1.662 -24.061 220 220 220
v -2.094 1.662 -23.734 220 220 220
v -2.231 1.662 -23.267 220 220 220
v -2.296 1.662 -22.947 220 220 220
v -2.351 1.662 -22.595 220 220 220
v -2.398 1.662 -22.210 220 220 220
v -1.498 1.680 -0.004 220 220 220
v -1.830 1.680 -0.189 220 220 220
v -2.097 1.680 -0.397 220 220 220
v -2.307 1.680 -0.627 220 220 220
v -2.466 1.680 -0.880 220 220 220
v -2.581 1.680 -1.155 220 220 220
v -2.657 1.680 -1.454 220 220 220
v -2.702 1.680 -1.776 220 220 220
v -2.723 1.680 -2.121 220 220 220
v -2.725 1.680 -2.490 220 220 220
v -2.716 1.680 -2.883 220 220 220
v -2.702 1.680 -3.299 220 220 220
v -2.689 1.680 -3.740 220 220 220
v -2.676 1.680 -4.443 220 220 220
v -2.659 1.680 -5.332 220 220 220
v -2.639 1.680 -6.380 220 220 220
v -2.617 1.680 -7.560 220 220 220
v -2.594 1.680 -8.846 220 220 220
v -2.569 1.680 -10.212 220 220 220
v -2.543 1.680 -11.631 220 220 220
v -2.517 1.680 -13.076 220 220 220
v -2.491 1.680 -14.521 220 220 220
v -2.465 1.680 -15.940 220 220 220
v -2.440 1.680 -17.305 220 220 220
v -2.417 1.680 -18.592 220 220 220
v -0.793 1.680 -19.156 220 220 220
v -0.767 1.680 -17.901 220 220 220
v -0.747 1.680 -16.636 220 220 220
v -0.731 1.680 -15.366 220 220 220
v -0.717 1.680 -14.092 220 220 220
v -0.704 1.680 -12.818 220 220 220
v -0.688 1.680 -11.548 220 220 220
v -0.668 1.680 -10.283 220 220 220
v -0.641 1.680 -9.028 220 220 220
v -0.607 1.680 -7.786 220 220 220
v -0.561 1.680 -6.558 220 220 220
v -0.504 1.680 -5.350 220 220 220
v -0.431 1.680 -4.163 220 220 220
v -0.391 1.680 -3.562 220 220 220
v -0.360 1.680 -3.024 220 220 220
v -0.342 1.680 -2.545 220 220 220
v -0.342 1.680 -2.120 220 220 220
v -0.364 1.680 -1.742 220 220 220
v -0.412 1.680 -1.408 220 220 220
v -0.491 1.680 -1.111 220 220 220
v -0.605 1.680 -0.846 220 220 220
v -0.758 1.680 -0.609 220 220 220
v -0.955 1.680 -0.393 220 220 220
v -1.200 1.680 -0.193 220 220 220
v -1.200 1.643 -0.193 220 220 220
v -0.955 1.643 -0.393 220 220 220
v -0.758 1.643 -0.609 220 220 220
v -0.605 1.643 -0.846 220 220 220
v -0.491 1.643 -1.111 220 220 220
v -0.412 1.643 -1.408 220 220 220
v -0.364 1.643 -1.742 220 220 220
v -0.342 1.643 -2.120 220 220 220
v -0.342 1.643 -2.545 220 220 220
v -0.360 1.643 -3.024 220 220 220
v -0.391 1.643 -3.562 220 220 220
v -0.431 1.643 -4.163 220 220 220
v -0.504 1.643 -5.350 220 220 220
v -0.561 1.643 -6.558 220 220 220
v -0.607 1.643 -7.786 220 220 220
v -0.641 1.643 -9.028 220 220 220
v -0.668 1.643 -10.283 220 220 220
v -0.688 1.643 -11.548 220 220 220
v -0.704 1.643 -12.818 220 220 220
v -0.717 1.643 -14.092 220 220 220
v -0.731 1.643 -15.366 220 220 220
v -0.747 1.643 -16.636 220 220 220
v -0.767 1.643 -17.901 220 220 220
v -0.793 1.643 -19.156 220 220 220
v -2.417 1.643 -18.592 220 220 220
v -2.440 1.643 -17.305 220 220 220
v -2.465 1.643 -15.940 220 220 220
v -2.491 1.643 -14.521 220 220 220
v -2.517 1.643 -13.076 220 220 220
v -2.543 1.643 -11.631 220 220 220
v -2.569 1.643 -10.212 220 220 220
v -2.594 1.643 -8.846 220 220 220
v -2.617 1.643 -7.560 220 220 220
v -2.639 1.643 -6.380 220 220 220
v -2.659 1.643 -5.332 220 220 220
v -2.676 1.643 -4.443 220 220 220
v -2.689 1.643 -3.740 220 220 220
v -2.702 1.643 -3.299 220 220 220
v -2.716 1.643 -2.883 220 220 220
v -2.725 1.643 -2.490 220 220 220
v -2.723 1.643 -2.121 220 220 220
v -2.702 1.643 -1.776 220 220 220
v -2.657 1.643 -1.454 220 220 220
v -2.581 1.643 -1.155 220 220 220
v -2.466 1.643 -0.880 220 220 220
v -2.307 1.643 -0.627 220 220 220
v -2.097 1.643 -0.397 220 220 220
v -1.830 1.643 -0.189 220 220 220
v -1.498 1.643 -0.004 220 220 220
v 0.807 1.680 -0.004 0 0 0
v 0.475 1.680 -0.189 0 0 0
v 0.207 1.680 -0.397 0 0 0
v -0.003 1.680 -0.627 0 0 0
v -0.162 1.680 -0.880 0 0 0
v -0.276 1.680 -1.155 0 0 0
v -0.352 1.680 -1.454 0 0 0
v -0.398 1.680 -1.776 0 0 0
v -0.418 1.680 -2.121 0 0 0
v -0.420 1.680 -2.490 0 0 0
v -0.411 1.680 -2.883 0 0 0
v -0.397 1.680 -3.299 0 0 0
v -0.385 1.680 -3.740 0 0 0
v -0.371 1.680 -4.443 0 0 0
v -0.354 1.680 -5.332 0 0 0
v -0.335 1.680 -6.380 0 0 0
v -0.313 1.680 -7.560 0 0 0
v -0.289 1.680 -8.846 0 0 0
v -0.264 1.680 -10.212 0 0 0
v -0.239 1.680 -11.631 0 0 0
v -0.212 1.680 -13.076 0 0 0
v -0.186 1.680 -14.521 0 0 0
v -0.160 1.680 -15.940 0 0 0
v -0.136 1.680 -17.305 0 0 0
v -0.112 1.680 -18.592 0 0 0
v 1.511 1.680 -19.156 0 0 0
v 1.537 1.680 -17.901 0 0 0
v 1.558 1.680 -16.636 0 0 0
v 1.573 1.680 -15.366 0 0 0
v 1.587 1.680 -14.092 0 0 0
v 1.601 1.680 -12.818 0 0 0
v 1.617 1.680 -11.548 0 0 0
v 1.637 1.680 -10.283 0 0 0
v 1.663 1.680 -9.028 0 0 0
v 1.698 1.680 -7.786 0 0 0
v 1.743 1.680 -6.558 0 0 0
v 1.801 1.680 -5.350 0 0 0
v 1.873 1.680 -4.163 0 0 0
v 1.913 1.680 -3.562 0 0 0
v 1.945 1.680 -3.024 0 0 0
v 1.963 1.680 -2.545 0 0 0
v 1.963 1.680 -2.120 0 0 0
v 1.941 1.680 -1.742 0 0 0
v 1.893 1.680 -1.408 0 0 0
v 1.814 1.680 -1.111 0 0 0
v 1.700 1.680 -0.846 0 0 0
v 1.547 1.680 -0.609 0 0 0
v 1.349 1.680 -0.393 0 0 0
v 1.104 1.680 -0.193 0 0 0

# Normal Array
vn 0.002 1.000 0.003
vn 0.002 1.000 0.003
vn 0.002 1.000 0.000
vn 0.000 1.000 0.000
vn 0.000 1.000 0.000
vn 0.000 1.000 0.000
vn 0.000 1.000 0.000
vn 0.000 1.000 0.000
vn 0.000 1.000 0.000
vn 0.001 1.000 0.000
vn 0.001 1.000 0.000
vn 0.001 1.000 0.000
vn 0.001 1.000 0.000
vn 0.001 1.000 0.000
vn 0.001 1.000 0.000
vn 0.001 1.000 -0.000
vn 0.001 1.000 -0.000
vn 0.001 1.000 -0.000
vn -0.000 1.000 0.000
vn 0.018 1.000 -0.004
vn -0.000 1.000 0.000
vn -0.000 1.000 0.000
vn -0.000 1.000 0.000
vn -0.016 1.000 0.005
vn -0.003 1.000 0.001
vn 0.000 1.000 -0.000
vn -0.003 1.000 0.001
vn -0.000 1.000 0.000
vn -0.000 1.000 0.000
vn -0.000 1.000 0.000
vn -0.000 1.000 0.000
vn -0.000 1.000 0.000
vn -0.000 1.000 0.000
vn -0.000 1.000 0.000
vn -0.000 1.000 0.000
vn 0.996 0.000 -0.092
vn 0.997 0.000 -0.078
vn 0.997 0.000 -0.078
vn 0.998 0.000 -0.069
vn 0.998 0.000 -0.069
vn 0.998 0.000 -0.062
vn 0.998 0.000 -0.062
vn 0.998 0.000 -0.058
vn 0.998 0.000 -0.058
vn 0.999 0.000 -0.055
vn 0.999 0.000 -0.055
vn 0.999 0.000 -0.053
vn 0.999 0.000 -0.053
vn 0.999 0.000 -0.052
vn 0.999 0.000 -0.052
vn 0.999 0.000 -0.052
vn 0.999 0.000 -0.052
vn 0.999 0.000 -0.053
vn 0.999 0.000 -0.053
vn 0.999 0.000 -0.055
vn 0.999 0.000 -0.055
vn 0.998 0.000 -0.058
vn 0.998 0.000 -0.058
vn 0.008 0.000 -1.000
vn 0.008 0.000 -1.000
vn -1.000 0.000 -0.025
vn -1.000 0.000 -0.025
vn -0.980 0.000 0.197
vn 0.002 -1.000 0.003
vn 0.002 -1.000 0.003
vn 0.002 -1.000 0.000
vn 0.000 -1.000 0.000
vn 0.000 -1.000 0.000
vn 0.000 -1.000 0.000
vn 0.000 -1.000 0.000
vn 0.000 -1.000 0.000
vn 0.000 -1.000 0.000
vn 0.001 -1.000 0.000
vn 0.001 -1.000 0.000
vn 0.001 -1.000 0.000
vn 0.001 -1.000 0.000
vn 0.001 -1.000 0.000
vn 0.001 -1.000 0.000
vn 0.001 -1.000 -0.000
vn 0.001 -1.000 -0.000
vn 0.001 -1.000 -0.000
vn 0.018 -1.000 -0.004
vn 0.000 -1.000 0.000
vn 0.006 -1.000 -0.001
vn -0.002 -1.000 0.001
vn -0.003 -1.000 0.001
vn -0.010 -1.000 0.004
vn 0.000 -1.000 0.000
vn 0.000 -1.000 0.000
vn 0.000 -1.000 0.000
vn 0.000 -1.000 0.000
vn 0.000 -1.000 0.000
vn 0.000 -1.000 0.000
vn 0.000 -1.000 0.000
vn 0.000 -1.000 0.000
vn -0.000 1.000 0.000
vn 0.000 1.000 0.000
vn -0.000 1.000 0.000
vn 0.000 1.000 0.000
vn -0.000 1.000 0.000
vn 0.000 1.000 0.000
vn -0.000 1.000 0.000
vn 0.000 1.000 0.000
vn -0.000 1.000 0.000
vn 0.000 1.000 0.000
vn -0.000 1.000 0.000
vn 0.000 1.000 0.000
vn 0.000 1.000 0.000
vn -0.000 1.000 0.000
vn 0.000 1.000 0.000
vn -0.000 1.000 0.000
vn 0.000 1.000 0.000
vn -0.000 1.000 0.000
vn 0.000 1.000 0.000
vn -0.000 1.000 0.000
vn 0.000 1.000 0.000
vn -0.000 1.000 0.000
vn -0.000 1.000 0.000
vn 0.000 1.000 0.000
vn -0.000 1.000 0.000
vn 0.000 1.000 0.000
vn -0.000 1.000 0.000
vn 0.000 1.000 0.000
vn -0.000 1.000 0.000
vn 0.000 1.000 0.000
vn -0.000 1.000 0.000
vn -0.000 1.000 0.000
vn 0.000 1.000 0.000
vn -0.000 1.000 0.000
vn 0.000 1.000 0.000
vn -0.000 1.000 0.000
vn 0.000 1.000 0.000
vn -0.000 1.000 0.000
vn 0.000 1.000 0.000
vn -0.000 1.000 0.000
vn 0.000 1.000 0.000
vn -0.000 1.000 0.000
vn 0.000 1.000 0.000
vn -0.000 1.000 0.000
vn 0.000 1.000 0.000
vn 0.000 1.000 0.000
vn -0.000 1.000 0.000
vn 0.632 0.000 0.775
vn 0.632 0.000 0.775
vn 0.739 0.000 0.674
vn 0.739 0.000 0.674
vn 0.840 0.000 0.542
vn 0.840 0.000 0.542
vn 0.918 0.000 0.396
vn 0.918 0.000 0.396
vn 0.966 0.000 0.257
vn 0.966 0.000 0.257
vn 0.990 0.000 0.143
vn 0.990 0.000 0.143
vn 0.998 0.000 0.058
vn 0.998 0.000 0.058
vn 1.000 0.000 -0.000
vn 1.000 0.000 -0.000
vn 0.999 0.000 -0.037
vn 0.999 0.000 -0.037
vn 0.998 0.000 -0.058
vn 0.998 0.000 -0.058
vn 0.998 0.000 -0.067
vn 0.998 0.000 -0.067
vn 0.998 0.000 -0.061
vn 0.998 0.000 -0.061
vn 0.999 0.000 -0.048
vn 0.999 0.000 -0.048
vn 0.999 0.000 -0.037
vn 0.999 0.000 -0.037
vn 1.000 0.000 -0.028
vn 1.000 0.000 -0.028
vn 1.000 0.000 -0.021
vn 1.000 0.000 -0.021
vn 1.000 0.000 -0.016
vn 1.000 0.000 -0.016
vn 1.000 0.000 -0.013
vn 1.000 0.000 -0.013
vn 1.000 0.000 -0.011
vn 1.000 0.000 -0.011
vn 1.000 0.000 -0.011
vn 1.000 0.000 -0.011
vn 1.000 0.000 -0.013
vn 1.000 0.000 -0.013
vn 1.000 0.000 -0.016
vn 1.000 0.000 -0.016
vn 1.000 0.000 -0.021
vn 1.000 0.000 -0.021
vn -0.328 0.000 -0.945
vn -0.328 0.000 -0.945
vn -1.000 0.000 -0.018
vn -1.000 0.000 -0.018
vn -1.000 0.000 -0.018
vn -1.000 0.000 -0.018
vn -1.000 0.000 -0.018
vn -1.000 0.000 -0.018
vn -1.000 0.000 -0.018
vn -1.000 0.000 -0.018
vn -1.000 0.000 -0.018
vn -1.000 0.000 -0.018
vn -1.000 0.000 -0.018
vn -1.000 0.000 -0.018
vn -1.000 0.000 -0.018
vn -1.000 0.000 -0.018
vn -1.000 0.000 -0.018
vn -1.000 0.000 -0.018
vn -1.000 0.000 -0.018
vn -1.000 0.000 -0.018
vn -1.000 0.000 -0.019
vn -1.000 0.000 -0.019
vn -1.000 0.000 -0.019
vn -1.000 0.000 -0.019
vn -1.000 0.000 -0.020
vn -1.000 0.000 -0.020
vn -1.000 0.000 -0.028
vn -1.000 0.000 -0.028
vn -0.999 0.000 -0.034
vn -0.999 0.000 -0.034
vn -1.000 0.000 -0.023
vn -1.000 0.000 -0.023
vn -1.000 0.000 0.006
vn -1.000 0.000 0.006
vn -0.998 0.000 0.059
vn -0.998 0.000 0.059
vn -0.990 0.000 0.139
vn -0.990 0.000 0.139
vn -0.969 0.000 0.248
vn -0.969 0.000 0.248
vn -0.924 0.000 0.383
vn -0.924 0.000 0.383
vn -0.847 0.000 0.532
vn -0.847 0.000 0.532
vn -0.738 0.000 0.674
vn -0.738 0.000 0.674
vn -0.613 0.000 0.790
vn -0.613 0.000 0.790
vn 0.535 0.000 0.845
vn 0.535 0.000 0.845
vn -0.487 0.000 0.873
vn -0.487 0.000 0.873
vn 0.000 -1.000 0.000
vn 0.000 -1.000 0.000
vn 0.000 -1.000 0.000
vn 0.000 -1.000 0.000
vn 0.000 -1.000 0.000
vn 0.000 -1.000 0.000
vn 0.000 -1.000 0.000
vn 0.000 -1.000 0.000
vn 0.000 -1.000 0.000
vn 0.000 -1.000 0.000
vn 0.000 -1.000 0.000
vn 0.000 -1.000 0.000
vn 0.000 -1.000 0.000
vn 0.000 -1.000 0.000
vn 0.000 -1.000 0.000
vn 0.000 -1.000 0.000
vn 0.000 -1.000 0.000
vn 0.000 -1.000 0.000
vn 0.000 -1.000 0.000
vn 0.000 -1.000 0.000
vn 0.000 -1.000 0.000
vn 0.000 -1.000 0.000
vn 0.000 -1.000 0.000
vn 0.000 -1.000 0.000
vn 0.000 -1.000 0.000
vn 0.000 -1.000 0.000
vn 0.000 -1.000 0.000
vn 0.000 -1.000 0.000
vn 0.000 -1.000 0.000
vn 0.000 -1.000 0.000
vn 0.000 -1.000 0.000
vn 0.000 -1.000 0.000
vn 0.000 -1.000 0.000
vn 0.000 -1.000 0.000
vn 0.000 -1.000 0.000
vn 0.000 -1.000 0.000
vn 0.000 -1.000 0.000
vn 0.000 -1.000 0.000
vn 0.000 -1.000 0.000
vn 0.000 -1.000 0.000
vn 0.000 -1.000 0.000
vn 0.000 -1.000 0.000
vn 0.000 -1.000 0.000
vn 0.000 -1.000 0.000
vn 0.000 -1.000 0.000
vn 0.000 -1.000 0.000
vn 0.000 -1.000 0.000

# Facets
f 43//1 1//1 42//1
f 44//2 1//2 43//2
f 2//3 1//3 44//3
f 45//4 2//4 44//4
f 46//5 2//5 45//5
f 47//6 2//6 46//6
f 48//7 2//7 47//7
f 49//8 2//8 48//8
f 50//9 2//9 49//9
f 51//10 2//10 50//10
f 52//11 2//11 51//11
f 2//12 52//12 15//12
f 16//13 2//13 15//13
f 17//14 2//14 16//14
f 18//15 2//15 17//15
f 19//16 2//16 18//16
f 20//17 2//17 19//17
f 21//18 2//18 20//18
f 22//19 27//19 21//19
f 27//20 2//20 21//20
f 23//21 27//21 22//21
f 24//22 27//22 23//22
f 26//23 27//23 25//23
f 14//24 2//24 27//24
f 13//25 2//25 14//25
f 12//26 2//26 13//26
f 11//27 2//27 12//27
f 10//28 2//28 11//28
f 9//29 2//29 10//29
f 8//30 2//30 9//30
f 7//31 2//31 8//31
f 6//32 2//32 7//32
f 5//33 2//33 6//33
f 4//34 2//34 5//34
f 3//35 2//35 4//35
f 14//36 27//36 28//36
f 13//37 14//37 28//37
f 28//38 29//38 13//38
f 12//39 13//39 29//39
f 29//40 30//40 12//40
f 11//41 12//41 30//41
f 30//42 31//42 11//42
f 10//43 11//43 31//43
f 31//44 32//44 10//44
f 9//45 10//45 32//45
f 32//46 33//46 9//46
f 8//47 9//47 33//47
f 33//48 34//48 8//48
f 7//49 8//49 34//49
f 34//50 35//50 7//50
f 6//51 7//51 35//51
f 35//52 36//52 6//52
f 5//53 6//53 36//53
f 36//54 37//54 5//54
f 4//55 5//55 37//55
f 37//56 38//56 4//56
f 3//57 4//57 38//57
f 38//58 39//58 3//58
f 2//59 3//59 39//59
f 39//60 40//60 2//60
f 1//61 2//61 40//61
f 40//62 41//62 1//62
f 42//63 1//63 41//63
f 42//64 41//64 43//64
f 43//65 41//65 44//65
f 41//66 40//66 44//66
f 44//67 40//67 45//67
f 45//68 40//68 46//68
f 46//69 40//69 47//69
f 47//70 40//70 48//70
f 48//71 40//71 49//71
f 49//72 40//72 50//72
f 50//73 40//73 51//73
f 51//74 40//74 52//74
f 15//75 52//75 40//75
f 15//76 40//76 16//76
f 16//77 40//77 17//77
f 17//78 40//78 18//78
f 18//79 40//79 19//79
f 19//80 40//80 20//80
f 20//81 40//81 21//81
f 21//82 40//82 27//82
f 24//83 27//83 25//83
f 27//84 40//84 28//84
f 28//85 40//85 29//85
f 29//86 40//86 30//86
f 30//87 40//87 31//87
f 31//88 40//88 32//88
f 32//89 40//89 33//89
f 33//90 40//90 34//90
f 34//91 40//91 35//91
f 35//92 40//92 36//92
f 36//93 40//93 37//93
f 37//94 40//94 38//94
f 38//95 40//95 39//95
f 77//96 79//96 78//96
f 76//97 79//97 77//97
f 76//98 80//98 79//98
f 75//99 80//99 76//99
f 75//100 81//100 80//100
f 74//101 81//101 75//101
f 74//102 82//102 81//102
f 73//103 82//103 74//103
f 73//104 83//104 82//104
f 72//105 83//105 73//105
f 72//106 84//106 83//106
f 71//107 84//107 72//107
f 71//108 85//108 84//108
f 71//109 86//109 85//109
f 70//110 86//110 71//110
f 70//111 87//111 86//111
f 69//112 87//112 70//112
f 69//113 88//113 87//113
f 68//114 88//114 69//114
f 68//115 89//115 88//115
f 67//116 89//116 68//116
f 67//117 90//117 89//117
f 66//118 90//118 67//118
f 65//119 90//119 66//119
f 65//120 91//120 90//120
f 64//121 91//121 65//121
f 64//122 92//122 91//122
f 63//123 92//123 64//123
f 63//124 93//124 92//124
f 62//125 93//125 63//125
f 62//126 94//126 93//126
f 61//127 94//127 62//127
f 60//128 94//128 61//128
f 60//129 95//129 94//129
f 59//130 95//130 60//130
f 59//131 96//131 95//131
f 58//132 96//132 59//132
f 58//133 97//133 96//133
f 57//134 97//134 58//134
f 57//135 98//135 97//135
f 56//136 98//136 57//136
f 56//137 99//137 98//137
f 55//138 99//138 56//138
f 55//139 100//139 99//139
f 54//140 100//140 55//140
f 54//141 101//141 100//141
f 54//142 53//142 101//142
f 100//143 101//143 102//143
f 102//144 103//144 100//144
f 99//145 100//145 103//145
f 103//146 104//146 99//146
f 98//147 99//147 104//147
f 104//148 105//148 98//148
f 97//149 98//149 105//149
f 105//150 106//150 97//150
f 96//151 97//151 106//151
f 106//152 107//152 96//152
f 95//153 96//153 107//153
f 107//154 108//154 95//154
f 94//155 95//155 108//155
f 108//156 109//156 94//156
f 93//157 94//157 109//157
f 109//158 110//158 93//158
f 92//159 93//159 110//159
f 110//160 111//160 92//160
f 91//161 92//161 111//161
f 111//162 112//162 91//162
f 90//163 91//163 112//163
f 112//164 113//164 90//164
f 89//165 90//165 113//165
f 113//166 114//166 89//166
f 88//167 89//167 114//167
f 114//168 115//168 88//168
f 87//169 88//169 115//169
f 115//170 116//170 87//170
f 86//171 87//171 116//171
f 116//172 117//172 86//172
f 85//173 86//173 117//173
f 117//174 118//174 85//174
f 84//175 85//175 118//175
f 118//176 119//176 84//176
f 83//177 84//177 119//177
f 119//178 120//178 83//178
f 82//179 83//179 120//179
f 120//180 121//180 82//180
f 81//181 82//181 121//181
f 121//182 122//182 81//182
f 80//183 81//183 122//183
f 122//184 123//184 80//184
f 79//185 80//185 123//185
f 123//186 124//186 79//186
f 78//187 79//187 124//187
f 124//188 125//188 78//188
f 77//189 78//189 125//189
f 125//190 126//190 77//190
f 76//191 77//191 126//191
f 126//192 127//192 76//192
f 75//193 76//193 127//193
f 127//194 128//194 75//194
f 74//195 75//195 128//195
f 128//196 129//196 74//196
f 73//197 74//197 129//197
f 129//198 130//198 73//198
f 72//199 73//199 130//199
f 130//200 131//200 72//200
f 71//201 72//201 131//201
f 131//202 132//202 71//202
f 70//203 71//203 132//203
f 132//204 133//204 70//204
f 69//205 70//205 133//205
f 133//206 134//206 69//206
f 68//207 69//207 134//207
f 134//208 135//208 68//208
f 67//209 68//209 135//209
f 135//210 136//210 67//210
f 66//211 67//211 136//211
f 136//212 137//212 66//212
f 65//213 66//213 137//213
f 137//214 138//214 65//214
f 64//215 65//215 138//215
f 138//216 139//216 64//216
f 63//217 64//217 139//217
f 139//218 140//218 63//218
f 62//219 63//219 140//219
f 140//220 141//220 62//220
f 61//221 62//221 141//221
f 141//222 142//222 61//222
f 60//223 61//223 142//223
f 142//224 143//224 60//224
f 59//225 60//225 143//225
f 143//226 144//226 59//226
f 58//227 59//227 144//227
f 144//228 145//228 58//228
f 57//229 58//229 145//229
f 145//230 146//230 57//230
f 56//231 57//231 146//231
f 146//232 147//232 56//232
f 55//233 56//233 147//233
f 147//234 148//234 55//234
f 54//235 55//235 148//235
f 148//236 149//236 54//236
f 101//237 53//237 150//237
f 150//238 102//238 101//238
f 53//239 54//239 149//239
f 149//240 150//240 53//240
f 125//241 124//241 126//241
f 126//242 124//242 127//242
f 124//243 123//243 127//243
f 127//244 123//244 128//244
f 123//245 122//245 128//245
f 128//246 122//246 129//246
f 122//247 121//247 129//247
f 129//248 121//248 130//248
f 121//249 120//249 130//249
f 130//250 120//250 131//250
f 120//251 119//251 131//251
f 131//252 119//252 132//252
f 119//253 118//253 132//253
f 118//254 117//254 132//254
f 132//255 117//255 133//255
f 117//256 116//256 133//256
f 133//257 116//257 134//257
f 116//258 115//258 134//258
f 134//259 115//259 135//259
f 115//260 114//260 135//260
f 135//261 114//261 136//261
f 114//262 113//262 136//262
f 136//263 113//263 137//263
f 137//264 113//264 138//264
f 113//265 112//265 138//265
f 138//266 112//266 139//266
f 112//267 111//267 139//267
f 139//268 111//268 140//268
f 111//269 110//269 140//269
f 140//270 110//270 141//270
f 110//271 109//271 141//271
f 141//272 109//272 142//272
f 142//273 109//273 143//273
f 109//274 108//274 143//274
f 143//275 108//275 144//275
f 108//276 107//276 144//276
f 144//277 107//277 145//277
f 107//278 106//278 145//278
f 145//279 106//279 146//279
f 106//280 105//280 146//280
f 146//281 105//281 147//281
f 105//282 104//282 147//282
f 147//283 104//283 148//283
f 104//284 103//284 148//284
f 148//285 103//285 149//285
f 103//286 102//286 149//286
f 102//287 150//287 149//287

# Thank you for using MeshMagic

