# Created using MeshMagic

# Vertex Array
v 2.908 -3.516 -2.183 220 220 220
v 4.557 -3.516 -1.492 220 220 220
v 4.531 -3.516 -2.748 220 220 220
v 2.884 -3.516 -0.897 220 220 220
v 4.578 -3.516 -0.228 220 220 220
v 2.860 -3.516 0.469 220 220 220
v 4.593 -3.516 1.043 220 220 220
v 2.834 -3.516 1.887 220 220 220
v 4.607 -3.516 2.316 220 220 220
v 2.808 -3.516 3.332 220 220 220
v 4.621 -3.516 3.590 220 220 220
v 2.781 -3.516 4.778 220 220 220
v 4.637 -3.516 4.861 220 220 220
v 2.756 -3.516 6.196 220 220 220
v 4.657 -3.516 6.125 220 220 220
v 4.683 -3.516 7.380 220 220 220
v 2.731 -3.516 7.562 220 220 220
v 4.718 -3.516 8.623 220 220 220
v 2.707 -3.516 8.848 220 220 220
v 4.763 -3.516 9.850 220 220 220
v 2.685 -3.516 10.029 220 220 220
v 4.821 -3.516 11.058 220 220 220
v 2.666 -3.516 11.076 220 220 220
v 4.893 -3.516 12.245 220 220 220
v 2.649 -3.516 11.965 220 220 220
v 2.635 -3.516 12.668 220 220 220
v 4.933 -3.516 12.847 220 220 220
v 2.623 -3.516 13.109 220 220 220
v 4.965 -3.516 13.384 220 220 220
v 2.609 -3.516 13.526 220 220 220
v 4.983 -3.516 13.863 220 220 220
v 2.600 -3.516 13.918 220 220 220
v 4.983 -3.516 14.289 220 220 220
v 2.602 -3.516 14.287 220 220 220
v 2.622 -3.516 14.633 220 220 220
v 4.961 -3.516 14.666 220 220 220
v 2.668 -3.516 14.955 220 220 220
v 4.913 -3.516 15.001 220 220 220
v 2.744 -3.516 15.253 220 220 220
v 4.834 -3.516 15.297 220 220 220
v 2.858 -3.516 15.529 220 220 220
v 4.720 -3.516 15.562 220 220 220
v 3.017 -3.516 15.781 220 220 220
v 4.567 -3.516 15.800 220 220 220
v 3.227 -3.516 16.011 220 220 220
v 4.370 -3.516 16.016 220 220 220
v 3.495 -3.516 16.219 220 220 220
v 4.124 -3.516 16.215 220 220 220
v 3.827 -3.516 16.404 220 220 220
v 4.124 -3.883 16.215 220 220 220
v 4.370 -3.883 16.016 220 220 220
v 4.567 -3.883 15.800 220 220 220
v 4.720 -3.883 15.562 220 220 220
v 4.834 -3.883 15.297 220 220 220
v 4.913 -3.883 15.001 220 220 220
v 4.961 -3.883 14.666 220 220 220
v 4.983 -3.883 14.289 220 220 220
v 4.983 -3.883 13.863 220 220 220
v 4.965 -3.883 13.384 220 220 220
v 4.933 -3.883 12.847 220 220 220
v 4.893 -3.883 12.245 220 220 220
v 4.821 -3.883 11.058 220 220 220
v 4.763 -3.883 9.850 220 220 220
v 4.718 -3.883 8.623 220 220 220
v 4.683 -3.883 7.380 220 220 220
v 4.657 -3.883 6.125 220 220 220
v 4.637 -3.883 4.861 220 220 220
v 4.621 -3.883 3.590 220 220 220
v 4.607 -3.883 2.316 220 220 220
v 4.593 -3.883 1.043 220 220 220
v 4.578 -3.883 -0.228 220 220 220
v 4.557 -3.883 -1.492 220 220 220
v 4.531 -3.883 -2.748 220 220 220
v 2.908 -3.883 -2.183 220 220 220
v 2.884 -3.883 -0.897 220 220 220
v 2.860 -3.883 0.469 220 220 220
v 2.834 -3.883 1.887 220 220 220
v 2.808 -3.883 3.332 220 220 220
v 2.781 -3.883 4.778 220 220 220
v 2.756 -3.883 6.196 220 220 220
v 2.731 -3.883 7.562 220 220 220
v 2.707 -3.883 8.848 220 220 220
v 2.685 -3.883 10.029 220 220 220
v 2.666 -3.883 11.076 220 220 220
v 2.649 -3.883 11.965 220 220 220
v 2.635 -3.883 12.668 220 220 220
v 2.623 -3.883 13.109 220 220 220
v 2.609 -3.883 13.526 220 220 220
v 2.600 -3.883 13.918 220 220 220
v 2.602 -3.883 14.287 220 220 220
v 2.622 -3.883 14.633 220 220 220
v 2.668 -3.883 14.955 220 220 220
v 2.744 -3.883 15.253 220 220 220
v 2.858 -3.883 15.529 220 220 220
v 3.017 -3.883 15.781 220 220 220
v 3.227 -3.883 16.011 220 220 220
v 3.495 -3.883 16.219 220 220 220
v 3.827 -3.883 16.404 220 220 220
v 4.162 -3.691 -8.558 220 220 220
v 4.464 -3.703 -8.308 220 220 220
v 4.386 -3.691 -8.697 220 220 220
v 3.902 -3.691 -8.354 220 220 220
v 4.246 -3.703 0.388 220 220 220
v 3.625 -3.691 -8.066 220 220 220
v 3.487 -3.691 -7.870 220 220 220
v 3.366 -3.691 -7.653 220 220 220
v 3.231 -3.691 -7.326 220 220 220
v 3.094 -3.691 -6.859 220 220 220
v 3.028 -3.691 -6.539 220 220 220
v 2.973 -3.691 -6.187 220 220 220
v 2.927 -3.691 -5.801 220 220 220
v 2.903 -3.691 -5.550 220 220 220
v 2.888 -3.691 -5.331 220 220 220
v 2.881 -3.691 -5.140 220 220 220
v 2.880 -3.691 -4.973 220 220 220
v 2.884 -3.691 -4.825 220 220 220
v 2.891 -3.691 -4.690 220 220 220
v 2.902 -3.691 -4.566 220 220 220
v 2.913 -3.691 -4.446 220 220 220
v 3.120 -3.691 -3.718 220 220 220
v 2.924 -3.691 -4.326 220 220 220
v 2.935 -3.691 -4.201 220 220 220
v 2.946 -3.691 -3.919 220 220 220
v 2.942 -3.691 -4.067 220 220 220
v 3.141 -3.698 -3.482 220 220 220
v 3.163 -3.700 -3.209 220 220 220
v 3.184 -3.700 -2.905 220 220 220
v 3.204 -3.703 -2.575 220 220 220
v 3.224 -3.703 -2.224 220 220 220
v 3.244 -3.703 -1.857 220 220 220
v 3.264 -3.703 -1.480 220 220 220
v 3.284 -3.703 -1.097 220 220 220
v 3.304 -3.703 -0.714 220 220 220
v 3.324 -3.703 -0.337 220 220 220
v 3.344 -3.703 0.030 220 220 220
v 3.364 -3.703 0.381 220 220 220
v 3.141 -3.693 -3.482 220 220 220
v 3.163 -3.691 -3.209 220 220 220
v 3.184 -3.688 -2.905 220 220 220
v 3.204 -3.678 -2.575 220 220 220
v 3.224 -3.678 -2.224 220 220 220
v 3.244 -3.678 -1.857 220 220 220
v 3.264 -3.678 -1.480 220 220 220
v 3.284 -3.678 -1.097 220 220 220
v 3.304 -3.678 -0.714 220 220 220
v 3.324 -3.678 -0.337 220 220 220
v 3.344 -3.678 0.030 220 220 220
v 3.364 -3.678 0.381 220 220 220
v 4.246 -3.678 0.388 220 220 220
v 4.464 -3.678 -8.308 220 220 220

# Normal Array
vn -0.000 1.000 0.000
vn 0.000 1.000 0.000
vn -0.000 1.000 0.000
vn 0.000 1.000 0.000
vn -0.000 1.000 0.000
vn 0.000 1.000 0.000
vn -0.000 1.000 0.000
vn 0.000 1.000 0.000
vn -0.000 1.000 0.000
vn 0.000 1.000 0.000
vn -0.000 1.000 0.000
vn 0.000 1.000 0.000
vn 0.000 1.000 0.000
vn -0.000 1.000 0.000
vn 0.000 1.000 0.000
vn -0.000 1.000 0.000
vn 0.000 1.000 0.000
vn -0.000 1.000 0.000
vn 0.000 1.000 0.000
vn -0.000 1.000 0.000
vn 0.000 1.000 0.000
vn -0.000 1.000 0.000
vn -0.000 1.000 0.000
vn 0.000 1.000 0.000
vn -0.000 1.000 0.000
vn 0.000 1.000 0.000
vn -0.000 1.000 0.000
vn 0.000 1.000 0.000
vn -0.000 1.000 0.000
vn 0.000 1.000 0.000
vn -0.000 1.000 0.000
vn -0.000 1.000 0.000
vn 0.000 1.000 0.000
vn -0.000 1.000 0.000
vn 0.000 1.000 0.000
vn -0.000 1.000 0.000
vn 0.000 1.000 0.000
vn -0.000 1.000 0.000
vn 0.000 1.000 0.000
vn -0.000 1.000 0.000
vn 0.000 1.000 0.000
vn -0.000 1.000 0.000
vn 0.000 1.000 0.000
vn -0.000 1.000 0.000
vn 0.000 1.000 0.000
vn 0.000 1.000 0.000
vn -0.000 1.000 0.000
vn 0.632 0.000 0.775
vn 0.632 0.000 0.775
vn 0.739 0.000 0.674
vn 0.739 0.000 0.674
vn 0.840 0.000 0.542
vn 0.840 0.000 0.542
vn 0.918 0.000 0.396
vn 0.918 0.000 0.396
vn 0.966 0.000 0.257
vn 0.966 0.000 0.257
vn 0.990 0.000 0.143
vn 0.990 0.000 0.143
vn 0.998 0.000 0.058
vn 0.998 0.000 0.058
vn 1.000 0.000 -0.000
vn 1.000 0.000 -0.000
vn 0.999 0.000 -0.037
vn 0.999 0.000 -0.037
vn 0.998 0.000 -0.058
vn 0.998 0.000 -0.058
vn 0.998 0.000 -0.067
vn 0.998 0.000 -0.067
vn 0.998 0.000 -0.061
vn 0.998 0.000 -0.061
vn 0.999 0.000 -0.048
vn 0.999 0.000 -0.048
vn 0.999 0.000 -0.037
vn 0.999 0.000 -0.037
vn 1.000 0.000 -0.028
vn 1.000 0.000 -0.028
vn 1.000 0.000 -0.021
vn 1.000 0.000 -0.021
vn 1.000 0.000 -0.016
vn 1.000 0.000 -0.016
vn 1.000 0.000 -0.013
vn 1.000 0.000 -0.013
vn 1.000 0.000 -0.011
vn 1.000 0.000 -0.011
vn 1.000 0.000 -0.011
vn 1.000 0.000 -0.011
vn 1.000 0.000 -0.013
vn 1.000 0.000 -0.013
vn 1.000 0.000 -0.016
vn 1.000 0.000 -0.016
vn 1.000 0.000 -0.021
vn 1.000 0.000 -0.021
vn -0.328 0.000 -0.945
vn -0.328 0.000 -0.945
vn -1.000 0.000 -0.018
vn -1.000 0.000 -0.018
vn -1.000 0.000 -0.018
vn -1.000 0.000 -0.018
vn -1.000 0.000 -0.018
vn -1.000 0.000 -0.018
vn -1.000 0.000 -0.018
vn -1.000 0.000 -0.018
vn -1.000 0.000 -0.018
vn -1.000 0.000 -0.018
vn -1.000 0.000 -0.018
vn -1.000 0.000 -0.018
vn -1.000 0.000 -0.018
vn -1.000 0.000 -0.018
vn -1.000 0.000 -0.018
vn -1.000 0.000 -0.018
vn -1.000 0.000 -0.018
vn -1.000 0.000 -0.018
vn -1.000 0.000 -0.019
vn -1.000 0.000 -0.019
vn -1.000 0.000 -0.019
vn -1.000 0.000 -0.019
vn -1.000 0.000 -0.020
vn -1.000 0.000 -0.020
vn -1.000 0.000 -0.028
vn -1.000 0.000 -0.028
vn -0.999 0.000 -0.034
vn -0.999 0.000 -0.034
vn -1.000 0.000 -0.023
vn -1.000 0.000 -0.023
vn -1.000 0.000 0.006
vn -1.000 0.000 0.006
vn -0.998 0.000 0.059
vn -0.998 0.000 0.059
vn -0.990 0.000 0.139
vn -0.990 0.000 0.139
vn -0.969 0.000 0.248
vn -0.969 0.000 0.248
vn -0.924 0.000 0.383
vn -0.924 0.000 0.383
vn -0.847 0.000 0.532
vn -0.847 0.000 0.532
vn -0.738 0.000 0.674
vn -0.738 0.000 0.674
vn -0.613 0.000 0.790
vn -0.613 0.000 0.790
vn 0.535 0.000 0.845
vn 0.535 0.000 0.845
vn -0.487 0.000 0.873
vn -0.487 0.000 0.873
vn 0.000 -1.000 0.000
vn 0.000 -1.000 0.000
vn 0.000 -1.000 0.000
vn 0.000 -1.000 0.000
vn 0.000 -1.000 0.000
vn 0.000 -1.000 0.000
vn 0.000 -1.000 0.000
vn 0.000 -1.000 0.000
vn 0.000 -1.000 0.000
vn 0.000 -1.000 0.000
vn 0.000 -1.000 0.000
vn 0.000 -1.000 0.000
vn 0.000 -1.000 0.000
vn 0.000 -1.000 0.000
vn 0.000 -1.000 0.000
vn 0.000 -1.000 0.000
vn 0.000 -1.000 0.000
vn 0.000 -1.000 0.000
vn 0.000 -1.000 0.000
vn 0.000 -1.000 0.000
vn 0.000 -1.000 0.000
vn 0.000 -1.000 0.000
vn 0.000 -1.000 0.000
vn 0.000 -1.000 0.000
vn 0.000 -1.000 0.000
vn 0.000 -1.000 0.000
vn 0.000 -1.000 0.000
vn 0.000 -1.000 0.000
vn 0.000 -1.000 0.000
vn 0.000 -1.000 0.000
vn 0.000 -1.000 0.000
vn 0.000 -1.000 0.000
vn 0.000 -1.000 0.000
vn 0.000 -1.000 0.000
vn 0.000 -1.000 0.000
vn 0.000 -1.000 0.000
vn 0.000 -1.000 0.000
vn 0.000 -1.000 0.000
vn 0.000 -1.000 0.000
vn 0.000 -1.000 0.000
vn 0.000 -1.000 0.000
vn 0.000 -1.000 0.000
vn 0.000 -1.000 0.000
vn 0.000 -1.000 0.000
vn 0.000 -1.000 0.000
vn 0.000 -1.000 0.000
vn 0.000 -1.000 0.000
vn 0.018 0.999 0.029
vn 0.020 0.999 0.026
vn 0.022 1.000 0.001
vn 0.001 1.000 0.001
vn 0.002 1.000 0.001
vn 0.002 1.000 0.001
vn 0.003 1.000 0.001
vn 0.004 1.000 0.001
vn 0.005 1.000 0.001
vn 0.005 1.000 0.001
vn 0.006 1.000 0.001
vn 0.007 1.000 0.001
vn 0.007 1.000 0.000
vn 0.008 1.000 0.000
vn 0.009 1.000 0.000
vn 0.010 1.000 -0.000
vn 0.012 1.000 -0.001
vn 0.013 1.000 -0.001
vn -0.000 1.000 0.000
vn 0.172 0.984 -0.044
vn -0.000 1.000 0.000
vn -0.000 1.000 0.000
vn -0.000 1.000 0.000
vn -0.160 0.986 0.047
vn -0.028 1.000 0.009
vn 0.003 1.000 -0.000
vn -0.030 0.999 0.011
vn -0.000 1.000 0.000
vn -0.000 1.000 0.000
vn -0.000 1.000 0.000
vn -0.000 1.000 0.000
vn -0.000 1.000 0.000
vn -0.000 1.000 0.000
vn -0.000 1.000 0.000
vn -0.000 1.000 0.000
vn 0.996 0.000 -0.092
vn 0.997 0.000 -0.078
vn 0.997 0.000 -0.078
vn 0.998 0.000 -0.069
vn 0.998 0.000 -0.069
vn 0.998 0.000 -0.062
vn 0.998 0.000 -0.062
vn 0.998 0.000 -0.058
vn 0.998 0.000 -0.058
vn 0.999 0.000 -0.055
vn 0.999 0.000 -0.055
vn 0.999 0.000 -0.053
vn 0.999 0.000 -0.053
vn 0.999 0.000 -0.052
vn 0.999 0.000 -0.052
vn 0.999 0.000 -0.052
vn 0.999 0.000 -0.052
vn 0.999 0.000 -0.053
vn 0.999 0.000 -0.053
vn 0.999 0.000 -0.055
vn 0.999 0.000 -0.055
vn 0.998 0.000 -0.058
vn 0.998 0.000 -0.058
vn 0.008 0.000 -1.000
vn 0.008 0.000 -1.000
vn -1.000 0.000 -0.025
vn -1.000 0.000 -0.025
vn -0.980 0.000 0.197
vn 0.018 -0.999 0.029
vn 0.020 -0.999 0.026
vn 0.022 -1.000 0.001
vn 0.001 -1.000 0.001
vn 0.002 -1.000 0.001
vn 0.002 -1.000 0.001
vn 0.003 -1.000 0.001
vn 0.004 -1.000 0.001
vn 0.005 -1.000 0.001
vn 0.005 -1.000 0.001
vn 0.006 -1.000 0.001
vn 0.007 -1.000 0.001
vn 0.007 -1.000 0.000
vn 0.008 -1.000 0.000
vn 0.009 -1.000 0.000
vn 0.010 -1.000 -0.000
vn 0.012 -1.000 -0.001
vn 0.013 -1.000 -0.001
vn 0.172 -0.984 -0.044
vn 0.000 -1.000 0.000
vn 0.062 -0.998 -0.014
vn -0.016 -1.000 0.008
vn -0.026 -1.000 0.011
vn -0.100 -0.994 0.035
vn 0.000 -1.000 0.000
vn 0.000 -1.000 0.000
vn 0.000 -1.000 0.000
vn 0.000 -1.000 0.000
vn 0.000 -1.000 0.000
vn 0.000 -1.000 0.000
vn 0.000 -1.000 0.000
vn 0.000 -1.000 0.000

# Facets
f 1//1 2//1 3//1
f 4//2 2//2 1//2
f 4//3 5//3 2//3
f 6//4 5//4 4//4
f 6//5 7//5 5//5
f 8//6 7//6 6//6
f 8//7 9//7 7//7
f 10//8 9//8 8//8
f 10//9 11//9 9//9
f 12//10 11//10 10//10
f 12//11 13//11 11//11
f 14//12 13//12 12//12
f 14//13 15//13 13//13
f 14//14 16//14 15//14
f 17//15 16//15 14//15
f 17//16 18//16 16//16
f 19//17 18//17 17//17
f 19//18 20//18 18//18
f 21//19 20//19 19//19
f 21//20 22//20 20//20
f 23//21 22//21 21//21
f 23//22 24//22 22//22
f 25//23 24//23 23//23
f 26//24 24//24 25//24
f 26//25 27//25 24//25
f 28//26 27//26 26//26
f 28//27 29//27 27//27
f 30//28 29//28 28//28
f 30//29 31//29 29//29
f 32//30 31//30 30//30
f 32//31 33//31 31//31
f 34//32 33//32 32//32
f 35//33 33//33 34//33
f 35//34 36//34 33//34
f 37//35 36//35 35//35
f 37//36 38//36 36//36
f 39//37 38//37 37//37
f 39//38 40//38 38//38
f 41//39 40//39 39//39
f 41//40 42//40 40//40
f 43//41 42//41 41//41
f 43//42 44//42 42//42
f 45//43 44//43 43//43
f 45//44 46//44 44//44
f 47//45 46//45 45//45
f 47//46 48//46 46//46
f 47//47 49//47 48//47
f 46//48 48//48 50//48
f 50//49 51//49 46//49
f 44//50 46//50 51//50
f 51//51 52//51 44//51
f 42//52 44//52 52//52
f 52//53 53//53 42//53
f 40//54 42//54 53//54
f 53//55 54//55 40//55
f 38//56 40//56 54//56
f 54//57 55//57 38//57
f 36//58 38//58 55//58
f 55//59 56//59 36//59
f 33//60 36//60 56//60
f 56//61 57//61 33//61
f 31//62 33//62 57//62
f 57//63 58//63 31//63
f 29//64 31//64 58//64
f 58//65 59//65 29//65
f 27//66 29//66 59//66
f 59//67 60//67 27//67
f 24//68 27//68 60//68
f 60//69 61//69 24//69
f 22//70 24//70 61//70
f 61//71 62//71 22//71
f 20//72 22//72 62//72
f 62//73 63//73 20//73
f 18//74 20//74 63//74
f 63//75 64//75 18//75
f 16//76 18//76 64//76
f 64//77 65//77 16//77
f 15//78 16//78 65//78
f 65//79 66//79 15//79
f 13//80 15//80 66//80
f 66//81 67//81 13//81
f 11//82 13//82 67//82
f 67//83 68//83 11//83
f 9//84 11//84 68//84
f 68//85 69//85 9//85
f 7//86 9//86 69//86
f 69//87 70//87 7//87
f 5//88 7//88 70//88
f 70//89 71//89 5//89
f 2//90 5//90 71//90
f 71//91 72//91 2//91
f 3//92 2//92 72//92
f 72//93 73//93 3//93
f 1//94 3//94 73//94
f 73//95 74//95 1//95
f 4//96 1//96 74//96
f 74//97 75//97 4//97
f 6//98 4//98 75//98
f 75//99 76//99 6//99
f 8//100 6//100 76//100
f 76//101 77//101 8//101
f 10//102 8//102 77//102
f 77//103 78//103 10//103
f 12//104 10//104 78//104
f 78//105 79//105 12//105
f 14//106 12//106 79//106
f 79//107 80//107 14//107
f 17//108 14//108 80//108
f 80//109 81//109 17//109
f 19//110 17//110 81//110
f 81//111 82//111 19//111
f 21//112 19//112 82//112
f 82//113 83//113 21//113
f 23//114 21//114 83//114
f 83//115 84//115 23//115
f 25//116 23//116 84//116
f 84//117 85//117 25//117
f 26//118 25//118 85//118
f 85//119 86//119 26//119
f 28//120 26//120 86//120
f 86//121 87//121 28//121
f 30//122 28//122 87//122
f 87//123 88//123 30//123
f 32//124 30//124 88//124
f 88//125 89//125 32//125
f 34//126 32//126 89//126
f 89//127 90//127 34//127
f 35//128 34//128 90//128
f 90//129 91//129 35//129
f 37//130 35//130 91//130
f 91//131 92//131 37//131
f 39//132 37//132 92//132
f 92//133 93//133 39//133
f 41//134 39//134 93//134
f 93//135 94//135 41//135
f 43//136 41//136 94//136
f 94//137 95//137 43//137
f 45//138 43//138 95//138
f 95//139 96//139 45//139
f 47//140 45//140 96//140
f 96//141 97//141 47//141
f 48//142 49//142 98//142
f 98//143 50//143 48//143
f 49//144 47//144 97//144
f 97//145 98//145 49//145
f 73//146 72//146 74//146
f 74//147 72//147 75//147
f 72//148 71//148 75//148
f 75//149 71//149 76//149
f 71//150 70//150 76//150
f 76//151 70//151 77//151
f 70//152 69//152 77//152
f 77//153 69//153 78//153
f 69//154 68//154 78//154
f 78//155 68//155 79//155
f 68//156 67//156 79//156
f 79//157 67//157 80//157
f 67//158 66//158 80//158
f 66//159 65//159 80//159
f 80//160 65//160 81//160
f 65//161 64//161 81//161
f 81//162 64//162 82//162
f 64//163 63//163 82//163
f 82//164 63//164 83//164
f 63//165 62//165 83//165
f 83//166 62//166 84//166
f 62//167 61//167 84//167
f 84//168 61//168 85//168
f 85//169 61//169 86//169
f 61//170 60//170 86//170
f 86//171 60//171 87//171
f 60//172 59//172 87//172
f 87//173 59//173 88//173
f 59//174 58//174 88//174
f 88//175 58//175 89//175
f 58//176 57//176 89//176
f 89//177 57//177 90//177
f 90//178 57//178 91//178
f 57//179 56//179 91//179
f 91//180 56//180 92//180
f 56//181 55//181 92//181
f 92//182 55//182 93//182
f 55//183 54//183 93//183
f 93//184 54//184 94//184
f 54//185 53//185 94//185
f 94//186 53//186 95//186
f 53//187 52//187 95//187
f 95//188 52//188 96//188
f 52//189 51//189 96//189
f 96//190 51//190 97//190
f 51//191 50//191 97//191
f 50//192 98//192 97//192
f 99//193 100//193 101//193
f 102//194 100//194 99//194
f 103//195 100//195 102//195
f 104//196 103//196 102//196
f 105//197 103//197 104//197
f 106//198 103//198 105//198
f 107//199 103//199 106//199
f 108//200 103//200 107//200
f 109//201 103//201 108//201
f 110//202 103//202 109//202
f 111//203 103//203 110//203
f 103//204 111//204 112//204
f 113//205 103//205 112//205
f 114//206 103//206 113//206
f 115//207 103//207 114//207
f 116//208 103//208 115//208
f 117//209 103//209 116//209
f 118//210 103//210 117//210
f 119//211 120//211 118//211
f 120//212 103//212 118//212
f 121//213 120//213 119//213
f 122//214 120//214 121//214
f 123//215 120//215 124//215
f 125//216 103//216 120//216
f 126//217 103//217 125//217
f 127//218 103//218 126//218
f 128//219 103//219 127//219
f 129//220 103//220 128//220
f 130//221 103//221 129//221
f 131//222 103//222 130//222
f 132//223 103//223 131//223
f 133//224 103//224 132//224
f 134//225 103//225 133//225
f 135//226 103//226 134//226
f 136//227 103//227 135//227
f 125//228 120//228 137//228
f 126//229 125//229 137//229
f 137//230 138//230 126//230
f 127//231 126//231 138//231
f 138//232 139//232 127//232
f 128//233 127//233 139//233
f 139//234 140//234 128//234
f 129//235 128//235 140//235
f 140//236 141//236 129//236
f 130//237 129//237 141//237
f 141//238 142//238 130//238
f 131//239 130//239 142//239
f 142//240 143//240 131//240
f 132//241 131//241 143//241
f 143//242 144//242 132//242
f 133//243 132//243 144//243
f 144//244 145//244 133//244
f 134//245 133//245 145//245
f 145//246 146//246 134//246
f 135//247 134//247 146//247
f 146//248 147//248 135//248
f 136//249 135//249 147//249
f 147//250 148//250 136//250
f 103//251 136//251 148//251
f 148//252 149//252 103//252
f 100//253 103//253 149//253
f 149//254 150//254 100//254
f 101//255 100//255 150//255
f 101//256 150//256 99//256
f 99//257 150//257 102//257
f 150//258 149//258 102//258
f 102//259 149//259 104//259
f 104//260 149//260 105//260
f 105//261 149//261 106//261
f 106//262 149//262 107//262
f 107//263 149//263 108//263
f 108//264 149//264 109//264
f 109//265 149//265 110//265
f 110//266 149//266 111//266
f 112//267 111//267 149//267
f 112//268 149//268 113//268
f 113//269 149//269 114//269
f 114//270 149//270 115//270
f 115//271 149//271 116//271
f 116//272 149//272 117//272
f 117//273 149//273 118//273
f 118//274 149//274 120//274
f 122//275 120//275 124//275
f 120//276 149//276 137//276
f 137//277 149//277 138//277
f 138//278 149//278 139//278
f 139//279 149//279 140//279
f 140//280 149//280 141//280
f 141//281 149//281 142//281
f 142//282 149//282 143//282
f 143//283 149//283 144//283
f 144//284 149//284 145//284
f 145//285 149//285 146//285
f 146//286 149//286 147//286
f 147//287 149//287 148//287

# Thank you for using MeshMagic

