# Blender v2.93.0 OBJ File: 'scalpel.blend'
# www.blender.org
mtllib scalpel.mtl
o scalpel
v 2.228849 -7.174721 -1.673171
v 3.492733 -7.174721 -1.143551
v 3.472805 -7.174721 -2.106218
v 2.210454 -7.174721 -0.687511
v 3.508828 -7.174721 -0.174753
v 2.192060 -7.174721 0.359466
v 3.520325 -7.174721 0.799411
v 2.172132 -7.174721 1.446298
v 3.531055 -7.174722 1.775107
v 2.152204 -7.174722 2.553825
v 3.541786 -7.174722 2.751570
v 2.131510 -7.174722 3.662118
v 3.554049 -7.174722 3.725734
v 2.112348 -7.174722 4.748950
v 3.569378 -7.174722 4.694532
v 3.589306 -7.174722 5.656433
v 2.093187 -7.174722 5.795927
v 3.616132 -7.174722 6.609136
v 2.074792 -7.174722 6.781587
v 3.650622 -7.174723 7.549575
v 2.057930 -7.174723 7.686770
v 3.695077 -7.174723 8.475451
v 2.043367 -7.174723 8.489248
v 3.750262 -7.174723 9.385233
v 2.030338 -7.174723 9.170626
v 2.019607 -7.174723 9.709443
v 3.780920 -7.174723 9.846639
v 2.010410 -7.174723 10.047450
v 3.805446 -7.174723 10.258224
v 1.999679 -7.174723 10.367062
v 3.819242 -7.174723 10.625357
v 1.992781 -7.174723 10.667512
v 3.819242 -7.174723 10.951865
v 1.994314 -7.174723 10.950333
v 2.009643 -7.174723 11.215527
v 3.802380 -7.174723 11.240820
v 2.044900 -7.174723 11.462324
v 3.765590 -7.174723 11.497581
v 2.103151 -7.174723 11.690728
v 3.705041 -7.174723 11.724452
v 2.190527 -7.174723 11.902269
v 3.617665 -7.174723 11.927563
v 2.312393 -7.174723 12.095416
v 3.500397 -7.174723 12.109979
v 2.473348 -7.174723 12.271700
v 3.349406 -7.174723 12.275534
v 2.678758 -7.174723 12.431123
v 3.160858 -7.174723 12.428058
v 2.933221 -7.174723 12.572916
v 3.160858 -7.923620 12.428058
v 3.349406 -7.923620 12.275534
v 3.500397 -7.923620 12.109979
v 3.617665 -7.923620 11.927563
v 3.705041 -7.923620 11.724452
v 3.765590 -7.923620 11.497581
v 3.802380 -7.923620 11.240820
v 3.819242 -7.923620 10.951865
v 3.819242 -7.923620 10.625357
v 3.805446 -7.923620 10.258224
v 3.780920 -7.923620 9.846639
v 3.750262 -7.923620 9.385233
v 3.695077 -7.923620 8.475451
v 3.650622 -7.923620 7.549575
v 3.616132 -7.923619 6.609135
v 3.589306 -7.923619 5.656432
v 3.569378 -7.923619 4.694532
v 3.554049 -7.923619 3.725734
v 3.541786 -7.923619 2.751570
v 3.531055 -7.923619 1.775107
v 3.520325 -7.923618 0.799411
v 3.508828 -7.923618 -0.174753
v 3.492733 -7.923618 -1.143551
v 3.472805 -7.923618 -2.106218
v 2.228849 -7.923618 -1.673171
v 2.210454 -7.923618 -0.687511
v 2.192060 -7.923618 0.359466
v 2.172132 -7.923618 1.446298
v 2.152204 -7.923619 2.553825
v 2.131510 -7.923619 3.662118
v 2.112348 -7.923619 4.748950
v 2.093187 -7.923619 5.795927
v 2.074792 -7.923619 6.781587
v 2.057930 -7.923620 7.686770
v 2.043367 -7.923620 8.489248
v 2.030338 -7.923620 9.170626
v 2.019607 -7.923620 9.709443
v 2.010410 -7.923620 10.047450
v 1.999679 -7.923620 10.367062
v 1.992781 -7.923620 10.667512
v 1.994314 -7.923620 10.950333
v 2.009643 -7.923620 11.215527
v 2.044900 -7.923620 11.462324
v 2.103151 -7.923620 11.690728
v 2.190527 -7.923620 11.902269
v 2.312393 -7.923620 12.095416
v 2.473348 -7.923620 12.271700
v 2.678758 -7.923620 12.431123
v 2.933221 -7.923620 12.572916
v 3.189983 -7.531824 -6.559318
v 3.421453 -7.556311 -6.367704
v 3.361669 -7.531824 -6.665855
v 2.990705 -7.531824 -6.402962
v 3.254365 -7.556312 0.297383
v 2.778397 -7.531824 -6.182222
v 2.672626 -7.531824 -6.031998
v 2.579885 -7.531824 -5.865677
v 2.476414 -7.531824 -5.615047
v 2.371410 -7.531824 -5.257113
v 2.320824 -7.531824 -5.011847
v 2.278669 -7.531824 -4.742054
v 2.243412 -7.531824 -4.446204
v 2.225017 -7.531825 -4.253823
v 2.213520 -7.531825 -4.085970
v 2.208155 -7.531825 -3.939577
v 2.207389 -7.531825 -3.811579
v 2.210454 -7.531825 -3.698143
v 2.215820 -7.531825 -3.594672
v 2.224251 -7.531825 -3.499632
v 2.232682 -7.531825 -3.407658
v 2.391338 -7.531825 -2.849679
v 2.241113 -7.531825 -3.315683
v 2.249544 -7.531825 -3.219876
v 2.257975 -7.531825 -3.003736
v 2.254909 -7.531825 -3.117171
v 2.407433 -7.546108 -2.668796
v 2.424295 -7.550190 -2.459553
v 2.440391 -7.550190 -2.226551
v 2.455720 -7.556312 -1.973621
v 2.471049 -7.556312 -1.704596
v 2.486378 -7.556312 -1.423307
v 2.501707 -7.556312 -1.134354
v 2.517036 -7.556312 -0.840802
v 2.532365 -7.556312 -0.547250
v 2.547694 -7.556312 -0.258296
v 2.563024 -7.556312 0.022992
v 2.578353 -7.556312 0.292018
v 2.407433 -7.535906 -2.668796
v 2.424295 -7.531825 -2.459553
v 2.440391 -7.525702 -2.226551
v 2.455720 -7.505297 -1.973621
v 2.471049 -7.505297 -1.704596
v 2.486378 -7.505297 -1.423307
v 2.501707 -7.505297 -1.134354
v 2.517036 -7.505297 -0.840802
v 2.532365 -7.505297 -0.547250
v 2.547694 -7.505297 -0.258296
v 2.563024 -7.505297 0.022992
v 2.578353 -7.505297 0.292018
v 3.254365 -7.505297 0.297383
v 3.421453 -7.505296 -6.367704
vn 0.0000 1.0000 -0.0000
vn 0.6320 -0.0000 0.7750
vn 0.6319 0.0000 0.7750
vn 0.7389 0.0000 0.6739
vn 0.8402 0.0000 0.5422
vn 0.8403 -0.0000 0.5422
vn 0.9182 0.0000 0.3961
vn 0.9182 -0.0000 0.3962
vn 0.9664 -0.0000 0.2570
vn 0.9897 0.0000 0.1430
vn 0.9897 -0.0000 0.1431
vn 0.9983 0.0000 0.0583
vn 0.9983 0.0000 0.0579
vn 1.0000 0.0000 0.0000
vn 0.9993 0.0000 -0.0369
vn 0.9993 -0.0000 -0.0370
vn 0.9983 -0.0000 -0.0583
vn 0.9983 -0.0000 -0.0580
vn 0.9977 0.0000 -0.0673
vn 0.9978 0.0000 -0.0666
vn 0.9982 -0.0000 -0.0606
vn 0.9981 0.0000 -0.0608
vn 0.9989 0.0000 -0.0478
vn 0.9996 0.0000 -0.0279
vn 0.9998 -0.0000 -0.0209
vn 0.9998 0.0000 -0.0208
vn 0.9999 0.0000 -0.0159
vn 0.9999 0.0000 -0.0127
vn 0.9999 0.0000 -0.0109
vn 0.9999 -0.0000 -0.0110
vn 0.9999 0.0000 -0.0124
vn 0.9999 -0.0000 -0.0158
vn 0.9999 -0.0000 -0.0161
vn 0.9998 -0.0000 -0.0211
vn 0.9998 -0.0000 -0.0210
vn 0.9998 0.0000 -0.0207
vn -0.3279 0.0000 -0.9447
vn -0.9998 0.0000 -0.0181
vn -0.9998 0.0000 -0.0179
vn -0.9998 0.0000 -0.0182
vn -0.9998 -0.0000 -0.0178
vn -0.9998 0.0000 -0.0180
vn -0.9998 -0.0000 -0.0184
vn -0.9998 -0.0000 -0.0190
vn -0.9998 0.0000 -0.0186
vn -0.9998 0.0000 -0.0195
vn -0.9998 0.0000 -0.0197
vn -0.9996 -0.0000 -0.0277
vn -0.9996 0.0000 -0.0276
vn -0.9994 0.0000 -0.0336
vn -0.9994 0.0000 -0.0338
vn -0.9997 0.0000 -0.0228
vn -0.9997 0.0000 -0.0230
vn -1.0000 -0.0000 0.0061
vn -1.0000 0.0000 0.0058
vn -0.9983 -0.0000 0.0590
vn -0.9903 0.0000 0.1390
vn -0.9688 -0.0000 0.2480
vn -0.9238 -0.0000 0.3830
vn -0.9238 0.0000 0.3829
vn -0.8468 0.0000 0.5319
vn -0.7385 0.0000 0.6743
vn -0.6131 0.0000 0.7900
vn 0.5349 0.0000 0.8449
vn -0.4868 0.0000 0.8735
vn -0.4871 -0.0000 0.8734
vn -0.4872 -0.0000 0.8733
vn -0.0000 -1.0000 -0.0000
vn 0.0496 0.9963 0.0708
vn 0.0493 0.9962 0.0713
vn 0.0461 0.9962 0.0743
vn 0.0520 0.9964 0.0668
vn 0.0574 0.9983 0.0019
vn 0.0040 1.0000 0.0029
vn 0.0159 0.9999 0.0014
vn 0.0033 1.0000 0.0032
vn 0.0052 1.0000 0.0029
vn 0.0065 1.0000 0.0029
vn 0.0084 1.0000 0.0030
vn 0.0109 0.9999 0.0027
vn 0.0127 0.9999 0.0025
vn 0.0145 0.9999 0.0025
vn 0.0162 0.9999 0.0021
vn 0.0176 0.9998 0.0015
vn 0.0192 0.9998 0.0006
vn 0.0214 0.9998 0.0004
vn 0.0240 0.9997 0.0000
vn 0.0280 0.9996 -0.0011
vn 0.0312 0.9995 -0.0021
vn 0.0353 0.9994 -0.0031
vn 0.4146 0.9037 -0.1064
vn 0.4118 0.9056 -0.1013
vn -0.3729 0.9214 0.1096
vn -0.3729 0.9214 0.1097
vn -0.3729 0.9214 0.1095
vn -0.0767 0.9967 0.0250
vn 0.0090 1.0000 -0.0004
vn -0.0816 0.9962 0.0292
vn 0.9958 0.0003 -0.0914
vn 0.9958 0.0001 -0.0920
vn 0.9970 0.0001 -0.0776
vn 0.9969 0.0001 -0.0789
vn 0.9976 0.0001 -0.0696
vn 0.9977 0.0000 -0.0685
vn 0.9981 0.0002 -0.0613
vn 0.9981 0.0001 -0.0614
vn 0.9982 -0.0001 -0.0607
vn 0.9983 0.0000 -0.0576
vn 0.9984 0.0000 -0.0571
vn 0.9985 0.0000 -0.0547
vn 0.9986 0.0000 -0.0537
vn 0.9986 0.0000 -0.0526
vn 0.9986 0.0000 -0.0521
vn 0.9984 -0.0000 -0.0570
vn 0.0079 0.0000 -1.0000
vn -0.9997 0.0000 -0.0251
vn -0.9804 -0.0000 0.1972
vn 0.0484 -0.9958 0.0781
vn 0.0508 -0.9960 0.0734
vn 0.0509 -0.9960 0.0732
vn 0.0546 -0.9960 0.0701
vn 0.0603 -0.9982 0.0020
vn 0.0037 -1.0000 0.0036
vn 0.0166 -0.9999 0.0013
vn 0.0041 -1.0000 0.0030
vn 0.0054 -1.0000 0.0032
vn 0.0067 -1.0000 0.0031
vn 0.0089 -1.0000 0.0030
vn 0.0115 -0.9999 0.0028
vn 0.0133 -0.9999 0.0027
vn 0.0148 -0.9999 0.0026
vn 0.0172 -0.9998 0.0025
vn 0.0186 -0.9998 0.0014
vn 0.0200 -0.9998 0.0006
vn 0.0224 -0.9997 0.0004
vn 0.0253 -0.9997 -0.0000
vn 0.0294 -0.9996 -0.0014
vn 0.0326 -0.9995 -0.0021
vn 0.0368 -0.9993 -0.0031
vn 0.4407 -0.8917 -0.1032
vn 0.4297 -0.8962 -0.1102
vn 0.1643 -0.9857 -0.0369
vn -0.0439 -0.9988 0.0224
vn -0.0554 -0.9982 0.0250
vn -0.0529 -0.9983 0.0247
vn -0.0706 -0.9970 0.0304
vn -0.2626 -0.9605 0.0922
usemtl Default_OBJ
s 1
f 1//1 2//1 3//1
f 4//1 2//1 1//1
f 4//1 5//1 2//1
f 6//1 5//1 4//1
f 6//1 7//1 5//1
f 8//1 7//1 6//1
f 8//1 9//1 7//1
f 10//1 9//1 8//1
f 10//1 11//1 9//1
f 12//1 11//1 10//1
f 12//1 13//1 11//1
f 14//1 13//1 12//1
f 14//1 15//1 13//1
f 14//1 16//1 15//1
f 17//1 16//1 14//1
f 17//1 18//1 16//1
f 19//1 18//1 17//1
f 19//1 20//1 18//1
f 21//1 20//1 19//1
f 21//1 22//1 20//1
f 23//1 22//1 21//1
f 23//1 24//1 22//1
f 25//1 24//1 23//1
f 26//1 24//1 25//1
f 26//1 27//1 24//1
f 28//1 27//1 26//1
f 28//1 29//1 27//1
f 30//1 29//1 28//1
f 30//1 31//1 29//1
f 32//1 31//1 30//1
f 32//1 33//1 31//1
f 34//1 33//1 32//1
f 35//1 33//1 34//1
f 35//1 36//1 33//1
f 37//1 36//1 35//1
f 37//1 38//1 36//1
f 39//1 38//1 37//1
f 39//1 40//1 38//1
f 41//1 40//1 39//1
f 41//1 42//1 40//1
f 43//1 42//1 41//1
f 43//1 44//1 42//1
f 45//1 44//1 43//1
f 45//1 46//1 44//1
f 47//1 46//1 45//1
f 47//1 48//1 46//1
f 47//1 49//1 48//1
f 46//2 48//2 50//2
f 50//2 51//3 46//2
f 44//4 46//4 51//4
f 51//4 52//4 44//4
f 42//5 44//6 52//6
f 52//6 53//6 42//5
f 40//7 42//8 53//8
f 53//8 54//7 40//7
f 38//9 40//9 54//9
f 54//9 55//9 38//9
f 36//10 38//11 55//10
f 55//10 56//11 36//10
f 33//12 36//13 56//12
f 56//12 57//13 33//12
f 31//14 33//14 57//14
f 57//14 58//14 31//14
f 29//15 31//16 58//15
f 58//15 59//16 29//15
f 27//17 29//18 59//18
f 59//18 60//19 27//17
f 24//20 27//17 60//19
f 60//19 61//21 24//20
f 22//22 24//20 61//21
f 61//21 62//23 22//22
f 20//23 22//22 62//23
f 62//23 63//15 20//23
f 18//15 20//23 63//15
f 63//15 64//24 18//15
f 16//24 18//15 64//24
f 64//24 65//25 16//24
f 15//26 16//24 65//25
f 65//25 66//27 15//26
f 13//27 15//26 66//27
f 66//27 67//28 13//27
f 11//28 13//27 67//28
f 67//28 68//29 11//28
f 9//30 11//28 68//29
f 68//29 69//30 9//30
f 7//31 9//30 69//30
f 69//30 70//28 7//31
f 5//28 7//31 70//28
f 70//28 71//32 5//28
f 2//33 5//28 71//32
f 71//32 72//34 2//33
f 3//35 2//33 72//34
f 72//34 73//36 3//35
f 1//37 3//37 73//37
f 73//37 74//37 1//37
f 4//38 1//39 74//39
f 74//39 75//38 4//38
f 6//39 4//38 75//38
f 75//38 76//39 6//39
f 8//40 6//39 76//39
f 76//39 77//40 8//40
f 10//39 8//40 77//40
f 77//40 78//39 10//39
f 12//38 10//39 78//39
f 78//39 79//41 12//38
f 14//42 12//38 79//41
f 79//41 80//42 14//42
f 17//42 14//42 80//42
f 80//42 81//42 17//42
f 19//42 17//42 81//42
f 81//42 82//42 19//42
f 21//43 19//42 82//42
f 82//42 83//44 21//43
f 23//44 21//43 83//44
f 83//44 84//45 23//44
f 25//46 23//44 84//45
f 84//45 85//46 25//46
f 26//47 25//46 85//46
f 85//46 86//48 26//47
f 28//49 26//47 86//48
f 86//48 87//50 28//49
f 30//51 28//49 87//50
f 87//50 88//52 30//51
f 32//53 30//51 88//52
f 88//52 89//53 32//53
f 34//54 32//55 89//54
f 89//54 90//55 34//54
f 35//56 34//56 90//56
f 90//56 91//56 35//56
f 37//57 35//57 91//57
f 91//57 92//57 37//57
f 39//58 37//58 92//58
f 92//58 93//58 39//58
f 41//59 39//60 93//60
f 93//60 94//59 41//59
f 43//61 41//61 94//61
f 94//61 95//61 43//61
f 45//62 43//62 95//62
f 95//62 96//62 45//62
f 47//63 45//63 96//63
f 96//63 97//63 47//63
f 48//64 49//64 98//64
f 98//64 50//64 48//64
f 49//65 47//66 97//65
f 97//65 98//67 49//65
f 73//68 72//68 74//68
f 74//68 72//68 75//68
f 72//68 71//68 75//68
f 75//68 71//68 76//68
f 71//68 70//68 76//68
f 76//68 70//68 77//68
f 70//68 69//68 77//68
f 77//68 69//68 78//68
f 69//68 68//68 78//68
f 78//68 68//68 79//68
f 68//68 67//68 79//68
f 79//68 67//68 80//68
f 67//68 66//68 80//68
f 66//68 65//68 80//68
f 80//68 65//68 81//68
f 65//68 64//68 81//68
f 81//68 64//68 82//68
f 64//68 63//68 82//68
f 82//68 63//68 83//68
f 63//68 62//68 83//68
f 83//68 62//68 84//68
f 62//68 61//68 84//68
f 84//68 61//68 85//68
f 85//68 61//68 86//68
f 61//68 60//68 86//68
f 86//68 60//68 87//68
f 60//68 59//68 87//68
f 87//68 59//68 88//68
f 59//68 58//68 88//68
f 88//68 58//68 89//68
f 58//68 57//68 89//68
f 89//68 57//68 90//68
f 90//68 57//68 91//68
f 57//68 56//68 91//68
f 91//68 56//68 92//68
f 56//68 55//68 92//68
f 92//68 55//68 93//68
f 55//68 54//68 93//68
f 93//68 54//68 94//68
f 54//68 53//68 94//68
f 94//68 53//68 95//68
f 53//68 52//68 95//68
f 95//68 52//68 96//68
f 52//68 51//68 96//68
f 96//68 51//68 97//68
f 51//68 50//68 97//68
f 50//68 98//68 97//68
f 99//69 100//70 101//71
f 102//72 100//70 99//69
f 103//73 100//73 102//73
f 104//74 103//75 102//76
f 105//77 103//75 104//74
f 106//78 103//75 105//77
f 107//79 103//75 106//78
f 108//80 103//75 107//79
f 109//81 103//75 108//80
f 110//82 103//75 109//81
f 111//83 103//75 110//82
f 103//75 111//83 112//84
f 113//85 103//75 112//84
f 114//86 103//75 113//85
f 115//87 103//75 114//86
f 116//88 103//75 115//87
f 117//89 103//75 116//88
f 118//90 103//75 117//89
f 119//1 120//1 118//1
f 120//91 103//91 118//92
f 121//1 120//1 119//1
f 122//1 120//1 121//1
f 123//1 120//1 124//1
f 125//93 103//94 120//95
f 126//96 103//96 125//96
f 127//97 103//97 126//97
f 128//98 103//98 127//98
f 129//1 103//1 128//1
f 130//1 103//1 129//1
f 131//1 103//1 130//1
f 132//1 103//1 131//1
f 133//1 103//1 132//1
f 134//1 103//1 133//1
f 135//1 103//1 134//1
f 136//1 103//1 135//1
f 125//99 120//100 137//101
f 126//102 125//99 137//101
f 137//101 138//103 126//102
f 127//104 126//102 138//103
f 138//103 139//105 127//104
f 128//106 127//104 139//105
f 139//105 140//107 128//106
f 129//108 128//106 140//107
f 140//107 141//109 129//108
f 130//110 129//108 141//109
f 141//109 142//111 130//110
f 131//112 130//110 142//111
f 142//111 143//113 131//112
f 132//113 131//112 143//113
f 143//113 144//113 132//113
f 133//112 132//113 144//113
f 144//113 145//112 133//112
f 134//111 133//112 145//112
f 145//112 146//110 134//111
f 135//114 134//111 146//110
f 146//110 147//108 135//114
f 136//18 135//114 147//108
f 147//108 148//18 136//18
f 103//115 136//115 148//115
f 148//115 149//115 103//115
f 100//116 103//116 149//116
f 149//116 150//116 100//116
f 101//117 100//117 150//117
f 101//118 150//119 99//120
f 99//120 150//119 102//121
f 150//122 149//122 102//122
f 102//123 149//124 104//125
f 104//125 149//124 105//126
f 105//126 149//124 106//127
f 106//127 149//124 107//128
f 107//128 149//124 108//129
f 108//129 149//124 109//130
f 109//130 149//124 110//131
f 110//131 149//124 111//132
f 112//133 111//132 149//124
f 112//133 149//124 113//134
f 113//134 149//124 114//135
f 114//135 149//124 115//136
f 115//136 149//124 116//137
f 116//137 149//124 117//138
f 117//138 149//124 118//139
f 118//140 149//141 120//141
f 122//68 120//68 124//68
f 120//142 149//142 137//142
f 137//143 149//144 138//145
f 138//145 149//144 139//146
f 139//147 149//147 140//147
f 140//68 149//68 141//68
f 141//68 149//68 142//68
f 142//68 149//68 143//68
f 143//68 149//68 144//68
f 144//68 149//68 145//68
f 145//68 149//68 146//68
f 146//68 149//68 147//68
f 147//68 149//68 148//68
